<?xml version="1.0" standalone="no"?>
<!DOCTYPE svg PUBLIC "-//W3C//DTD SVG 20010904//EN"
 "http://www.w3.org/TR/2001/REC-SVG-20010904/DTD/svg10.dtd">
<svg version="1.0" xmlns="http://www.w3.org/2000/svg"
 width="449.000000pt" height="298.000000pt" viewBox="0 0 449.000000 298.000000"
 preserveAspectRatio="xMidYMid meet">
<metadata>
Created by potrace 1.16, written by Peter Selinger 2001-2019
</metadata>
<g transform="translate(0.000000,298.000000) scale(0.100000,-0.100000)"
fill="#000000" stroke="none">
<path d="M3625 2289 c-60 -16 -126 -29 -145 -29 -42 0 -98 -15 -161 -42 -41
-17 -50 -27 -74 -80 -35 -78 -32 -66 -135 -490 -49 -201 -107 -424 -130 -495
-22 -70 -48 -169 -56 -219 -15 -83 -14 -94 0 -122 29 -57 222 -186 274 -185
35 1 222 86 222 100 0 5 25 26 55 48 74 53 80 76 65 248 -6 73 -15 161 -20
197 -16 111 -18 107 57 130 36 11 68 19 70 16 8 -8 62 -239 68 -294 8 -64 33
-110 104 -185 84 -90 76 -90 274 6 95 46 207 96 250 112 48 17 82 36 89 49 9
17 -8 57 -115 271 -70 137 -164 336 -211 440 -131 296 -213 474 -225 489 -11
14 -87 49 -126 59 -11 3 -69 -8 -130 -24z m334 -542 c127 -277 231 -508 231
-514 0 -6 -33 -24 -72 -41 -86 -34 -316 -107 -321 -101 -2 2 -18 76 -36 164
-37 181 -62 261 -91 289 -19 20 -20 20 -117 -20 -54 -21 -118 -53 -143 -69
l-45 -30 0 -220 0 -220 -75 -43 c-148 -84 -292 -131 -310 -102 -10 17 12 115
115 500 47 179 104 406 125 505 21 99 47 207 57 239 22 71 27 73 243 116 80
16 156 33 170 39 14 5 28 10 31 10 4 1 110 -225 238 -502z m326 -627 c15 -22
26 -42 24 -43 -32 -21 -369 -177 -382 -177 -18 0 -107 76 -107 91 0 19 66 49
149 68 47 11 127 38 176 60 50 22 95 40 101 40 6 1 24 -17 39 -39z m-861 -259
l29 -30 -45 -28 c-25 -15 -81 -46 -126 -67 -90 -44 -92 -44 -161 13 l-34 28
64 21 c35 11 98 37 139 56 41 19 82 35 91 36 8 0 28 -13 43 -29z"/>
<path d="M3475 1978 c-16 -6 -36 -15 -42 -21 -21 -16 -53 -135 -53 -197 0 -67
15 -86 57 -75 50 12 177 66 186 78 10 16 0 85 -24 164 -20 63 -20 63 -57 62
-20 0 -50 -5 -67 -11z"/>
<path d="M400 2293 c-35 -4 -240 -38 -294 -49 l-28 -6 7 -107 c3 -58 15 -173
26 -256 10 -82 32 -274 49 -425 17 -151 42 -363 57 -470 l26 -195 57 -56 c31
-30 73 -63 94 -73 37 -17 41 -17 130 3 50 11 143 28 206 36 176 24 607 84 683
96 37 6 76 18 87 27 l21 17 -26 154 c-15 84 -31 164 -36 178 -13 35 -105 129
-144 148 -29 13 -47 14 -115 6 -83 -11 -295 -56 -337 -72 -13 -5 -30 -9 -37
-9 -20 0 -35 66 -46 200 -20 249 -31 338 -63 513 l-33 177 -55 56 c-29 31 -74
69 -98 85 -43 28 -56 30 -131 22z m65 -75 c19 -83 69 -489 90 -728 13 -157 29
-298 34 -313 8 -20 17 -27 39 -27 64 0 198 23 333 56 92 23 179 38 240 41 l96
6 25 -127 25 -126 -21 -5 c-12 -2 -109 -16 -216 -30 -211 -29 -348 -53 -618
-110 -95 -21 -175 -35 -178 -32 -20 20 -79 468 -99 752 -4 50 -20 164 -35 255
-37 209 -53 337 -47 354 4 9 34 16 89 20 45 4 115 13 153 21 39 7 73 13 77 14
4 0 10 -9 13 -21z m132 -90 c39 -41 41 -47 52 -138 7 -52 21 -151 32 -220 11
-69 24 -191 29 -271 8 -129 18 -204 36 -261 4 -13 -4 -19 -33 -27 -20 -6 -40
-7 -44 -3 -4 4 -21 129 -38 277 -18 149 -43 333 -56 410 -30 179 -40 275 -28
275 5 0 27 -19 50 -42z"/>
<path d="M1890 1640 c-117 -8 -157 -17 -164 -36 -3 -7 -1 -73 4 -145 l9 -131
48 -60 c73 -93 85 -99 163 -88 82 12 363 12 455 0 101 -13 351 1 371 21 12 13
16 46 17 175 2 148 0 162 -21 201 -12 23 -30 47 -41 52 -22 12 -702 21 -841
11z m620 -71 c14 -1 51 2 83 6 l57 8 0 -82 0 -81 -102 0 c-65 0 -134 -8 -188
-20 -71 -16 -123 -20 -321 -20 l-237 0 -6 23 c-3 12 -6 52 -6 89 l0 67 33 5
c73 13 114 14 382 10 154 -2 291 -4 305 -5z m170 -268 l20 -40 -47 -7 c-26 -4
-151 -4 -278 -1 -126 4 -284 3 -350 -2 l-120 -9 -27 26 c-16 14 -28 29 -28 33
0 3 111 9 248 12 136 4 267 11 292 16 25 4 96 9 157 10 l113 1 20 -39z"/>
</g>
</svg>
